<svg width="64" height="64" viewBox="0 0 64 64" fill="none" xmlns="http://www.w3.org/2000/svg">
<g opacity="0.75">
<rect x="4" y="4" width="56" height="56" fill="#FFCA28"/>
<path d="M38 50.5753L42.1231 47.8471C42.4462 48.8623 44.4923 51.2732 47.0769 51.2732C49.6615 51.2732 50.8615 49.8616 50.8615 48.9257C50.8615 46.3753 48.2223 45.4761 46.9547 45.0442C46.7481 44.9738 46.5779 44.9158 46.4615 44.8651C46.4019 44.8392 46.3116 44.8047 46.1958 44.7604C44.7859 44.2218 39.5846 42.2346 39.5846 36.4743C39.5846 30.1297 45.7077 29.4 47.0923 29.4C47.9982 29.4 52.3538 29.5111 54.5231 33.5875L50.5231 36.3792C49.6462 34.6027 48.1892 34.0158 47.2923 34.0158C45.0769 34.0158 44.6154 35.6399 44.6154 36.3792C44.6154 38.4536 47.0223 39.3834 49.0547 40.1684C49.5864 40.3738 50.0925 40.5693 50.5231 40.7728C52.7385 41.8197 56 43.5327 56 48.9257C56 51.6269 53.7344 56 48.0308 56C40.3692 56 38.3385 51.4002 38 50.5753Z" fill="#DEEDDA"/>
<path d="M18 51.1171L22.2973 48.3903C22.6341 49.4049 23.9425 51.2756 25.8411 51.2756C27.7396 51.2756 28.7113 49.3256 28.7113 48.3903V30H33.9964V48.3903C34.0819 50.9269 32.6751 56 26.4664 56C20.758 56 18.3848 52.6074 18 51.1171Z" fill="#DEEDDA"/>
</g>
</svg>
