<svg width="47" height="63" viewBox="0 0 47 63" fill="none" xmlns="http://www.w3.org/2000/svg">
<g opacity="0.75">
<path d="M11.75 63C18.236 63 23.5 58.296 23.5 52.5V42H11.75C5.264 42 0 46.704 0 52.5C0 58.296 5.264 63 11.75 63Z" fill="#0ACF83"/>
<path d="M0 31.5C0 25.704 5.264 21 11.75 21H23.5V42H11.75C5.264 42 0 37.296 0 31.5Z" fill="#A259FF"/>
<path d="M0 10.5C0 4.704 5.264 0 11.75 0H23.5V21H11.75C5.264 21 0 16.296 0 10.5Z" fill="#F24E1E"/>
<path d="M23.5 0H35.25C41.736 0 47 4.704 47 10.5C47 16.296 41.736 21 35.25 21H23.5V0Z" fill="#FF7262"/>
<path d="M47 31.5C47 37.296 41.736 42 35.25 42C28.764 42 23.5 37.296 23.5 31.5C23.5 25.704 28.764 21 35.25 21C41.736 21 47 25.704 47 31.5Z" fill="#1ABCFE"/>
</g>
</svg>
