<svg width="64" height="64" viewBox="0 0 64 64" fill="none" xmlns="http://www.w3.org/2000/svg">
<g opacity="0.75">
<path d="M32.0003 0C14.3293 0 0 14.6893 0 32.8102C0 47.3065 9.16905 59.6052 21.8837 63.9436C23.483 64.2473 24.0701 63.2319 24.0701 62.3653C24.0701 61.5829 24.0405 58.9983 24.0267 56.2567C15.1242 58.2414 13.2457 52.3855 13.2457 52.3855C11.79 48.5931 9.6926 47.5847 9.6926 47.5847C6.78922 45.5483 9.91146 45.5902 9.91146 45.5902C13.1248 45.8216 14.8168 48.9713 14.8168 48.9713C17.6709 53.9872 22.3029 52.5371 24.129 51.6987C24.4162 49.5782 25.2455 48.1308 26.1606 47.3114C19.0529 46.4818 11.5812 43.6684 11.5812 31.0965C11.5812 27.5144 12.8313 24.5875 14.8783 22.2898C14.5461 21.4634 13.4507 18.1263 15.1883 13.607C15.1883 13.607 17.8755 12.7252 23.9907 16.9701C26.5432 16.2432 29.2808 15.8786 32.0003 15.8661C34.7198 15.8786 37.4594 16.2432 40.0168 16.9701C46.1245 12.7252 48.808 13.607 48.808 13.607C50.5498 18.1263 49.4539 21.4634 49.1217 22.2898C51.1735 24.5875 52.4151 27.5144 52.4151 31.0965C52.4151 43.6983 44.929 46.4731 37.8033 47.2853C38.9511 48.3035 39.9738 50.3002 39.9738 53.3613C39.9738 57.7514 39.9367 61.2846 39.9367 62.3653C39.9367 63.2384 40.5128 64.2615 42.1348 63.9393C54.8426 59.5959 64 47.3016 64 32.8102C64 14.6893 49.6728 0 32.0003 0ZM11.9851 46.7388C11.9147 46.9017 11.6645 46.9506 11.4367 46.8387C11.2046 46.7317 11.0742 46.5095 11.1495 46.3459C11.2184 46.178 11.469 46.1313 11.7006 46.2438C11.9332 46.3508 12.0657 46.5752 11.9851 46.7388ZM13.5592 48.1788C13.4066 48.3239 13.1082 48.2565 12.9058 48.0272C12.6965 47.7985 12.6573 47.4926 12.812 47.3454C12.9694 47.2003 13.2587 47.2682 13.4686 47.4969C13.6779 47.7284 13.7187 48.0321 13.5592 48.1788ZM14.6391 50.0213C14.443 50.1609 14.1224 50.03 13.9242 49.7382C13.7281 49.4465 13.7281 49.0966 13.9284 48.9564C14.1272 48.8162 14.443 48.9423 14.6438 49.2319C14.8394 49.5285 14.8394 49.8784 14.6391 50.0213ZM16.4653 52.1552C16.2899 52.3535 15.9164 52.3003 15.6429 52.0297C15.3631 51.7651 15.2852 51.3897 15.4612 51.1913C15.6387 50.9925 16.0144 51.0484 16.2899 51.3168C16.5676 51.5809 16.6524 51.9591 16.4653 52.1552ZM18.8256 52.8756C18.7483 53.1326 18.3885 53.2494 18.026 53.1402C17.6641 53.0277 17.4272 52.7267 17.5003 52.467C17.5756 52.2084 17.937 52.0867 18.3021 52.2035C18.6635 52.3154 18.9009 52.6142 18.8256 52.8756ZM21.5117 53.1811C21.5207 53.4517 21.2134 53.6761 20.8329 53.681C20.4503 53.6897 20.1409 53.4707 20.1366 53.2045C20.1366 52.9312 20.4371 52.709 20.8197 52.7025C21.2001 52.6949 21.5117 52.9122 21.5117 53.1811ZM24.1505 53.0774C24.1961 53.3415 23.9317 53.6126 23.5539 53.6849C23.1824 53.7544 22.8385 53.5914 22.7913 53.3295C22.7452 53.0589 23.0144 52.7878 23.3853 52.7177C23.7637 52.6504 24.1023 52.809 24.1505 53.0774Z" fill="#161614" fill-opacity="0.75"/>
</g>
</svg>
