<svg width="64" height="73" viewBox="0 0 64 73" fill="none" xmlns="http://www.w3.org/2000/svg">
<g opacity="0.75">
<path d="M32 0L64 18.1011V54.3155L32 72.4166L0 54.3155V18.1011L32 0Z" fill="#DEEDDA"/>
<path d="M58.2883 53.0596L33.0626 67.3449V56.2354L48.7849 47.5773L58.2883 53.0596ZM60.0151 51.5019V21.6513L50.7894 26.9766V46.1766L60.0151 51.5019ZM5.6151 53.0596L30.8408 67.3328V56.2234L15.1185 47.5773L5.6151 53.0596ZM3.88831 51.5019V21.6513L13.114 26.9766V46.1766L3.88831 51.5019ZM4.96302 19.7192L30.8408 5.08374V15.8309L14.2611 24.9479L14.1283 25.0203L4.96302 19.7192ZM58.9283 19.7192L33.0626 5.08374V15.8309L49.6302 24.96L49.763 25.0324L58.9283 19.7192Z" fill="#8ED6FB"/>
<path d="M30.8407 53.6997L15.3358 45.1623V28.2687L30.8407 37.2166V53.6997ZM33.0626 53.6997L48.5675 45.1744V28.2687L33.0626 37.2166V53.6997ZM16.3743 26.3125L31.9517 17.751L47.5169 26.3125L31.9517 35.2966L16.3743 26.3125Z" fill="#1C78C0"/>
</g>
</svg>
