<svg width="64" height="65" viewBox="0 0 64 65" fill="none" xmlns="http://www.w3.org/2000/svg">
<g opacity="0.75">
<path d="M63.7882 9.48443L33.7242 63.2441C33.1035 64.354 31.5088 64.3606 30.8787 63.256L0.218608 9.4896C-0.467779 8.28594 0.561488 6.82796 1.92548 7.07176L32.0217 12.4513C32.2136 12.4856 32.4102 12.4853 32.6022 12.4503L62.069 7.07947C63.4284 6.83171 64.4625 8.27839 63.7882 9.48443Z" fill="url(#paint0_linear_42_450)"/>
<path d="M46.3581 0.015776L24.1098 4.37524C23.7442 4.44688 23.4734 4.75677 23.4514 5.12867L22.0828 28.2429C22.0506 28.7873 22.5506 29.2098 23.0819 29.0873L29.2762 27.6577C29.8557 27.5241 30.3794 28.0345 30.2603 28.6174L28.42 37.629C28.2961 38.2355 28.8655 38.7541 29.4578 38.5742L33.2837 37.4118C33.8768 37.2318 34.4467 37.7518 34.3212 38.3589L31.3967 52.5141C31.2137 53.3995 32.3914 53.8823 32.8826 53.1232L33.2107 52.6162L51.3398 16.4364C51.6434 15.8306 51.1199 15.1399 50.4545 15.2683L44.0786 16.4988C43.4794 16.6143 42.9696 16.0563 43.1388 15.4701L47.3002 1.04393C47.4695 0.456732 46.9579 -0.101739 46.3581 0.015776Z" fill="url(#paint1_linear_42_450)"/>
</g>
<defs>
<linearGradient id="paint0_linear_42_450" x1="-0.529983" y1="11.4091" x2="31.894" y2="55.4435" gradientUnits="userSpaceOnUse">
<stop stop-color="#41D1FF"/>
<stop offset="1" stop-color="#BD34FE"/>
</linearGradient>
<linearGradient id="paint1_linear_42_450" x1="34.8108" y1="1.19936" x2="41.4809" y2="46.9555" gradientUnits="userSpaceOnUse">
<stop stop-color="#FFEA83"/>
<stop offset="0.0833333" stop-color="#FFDD35"/>
<stop offset="1" stop-color="#FFA800"/>
</linearGradient>
</defs>
</svg>
