<svg width="529" height="99" viewBox="0 0 529 99" fill="none" xmlns="http://www.w3.org/2000/svg">
<path d="M466 49.9443C466 77.0063 367.503 98.9443 246 98.9443C124.497 98.9443 26 77.0063 26 49.9443C26 22.8824 124.497 0.944336 246 0.944336C367.503 0.944336 466 22.8824 466 49.9443Z" fill="white"/>
<path d="M246 1.94434C306.701 1.94434 361.624 7.42538 401.346 16.2725C421.215 20.6978 437.226 25.9533 448.245 31.7559C453.756 34.6577 457.97 37.6719 460.794 40.7461C463.613 43.8148 465 46.8869 465 49.9443C465 53.0018 463.613 56.0739 460.794 59.1426C457.97 62.2168 453.756 65.231 448.245 68.1328C437.226 73.9354 421.215 79.1909 401.346 83.6162C361.624 92.4633 306.701 97.9443 246 97.9443C185.299 97.9443 130.376 92.4633 90.6543 83.6162C70.7855 79.1909 54.7742 73.9354 43.7549 68.1328C38.2442 65.231 34.0305 62.2168 31.2061 59.1426C28.3867 56.0739 27 53.0018 27 49.9443C27 46.8869 28.3867 43.8148 31.2061 40.7461C34.0305 37.6719 38.2442 34.6577 43.7549 31.7559C54.7742 25.9533 70.7855 20.6978 90.6543 16.2725C130.376 7.42538 185.299 1.94434 246 1.94434Z" stroke="#03663C" stroke-opacity="0.88" stroke-width="2"/>
<path d="M454 35.2097L477.875 48.898" stroke="#03663C" stroke-opacity="0.88" stroke-width="2" stroke-linecap="round"/>
<path d="M478 48.9443L455.37 63.9881" stroke="#03663C" stroke-opacity="0.88" stroke-width="2" stroke-linecap="round"/>
<circle cx="484" cy="48.9443" r="8" fill="white"/>
<circle cx="484" cy="48.9443" r="7.25" stroke="#03663C" stroke-opacity="0.88" stroke-width="1.5"/>
<path d="M38 35.2097L14.1246 48.898" stroke="#03663C" stroke-opacity="0.88" stroke-width="2" stroke-linecap="round"/>
<path d="M14 48.9443L36.6305 63.9881" stroke="#03663C" stroke-opacity="0.88" stroke-width="2" stroke-linecap="round"/>
<circle cx="8" cy="8" r="8" transform="matrix(-1 0 0 1 16 40.9443)" fill="white"/>
<circle cx="8" cy="8" r="7.25" transform="matrix(-1 0 0 1 16 40.9443)" stroke="#03663C" stroke-opacity="0.88" stroke-width="1.5"/>
<path fill-rule="evenodd" clip-rule="evenodd" d="M516.806 8.03643C519.596 5.24697 524.118 5.24697 526.908 8.03643C529.697 10.8259 529.697 15.3485 526.908 18.138C525.989 19.0567 524.879 19.674 523.705 19.9875L520.429 20.8652V25.9443C520.429 26.3232 520.278 26.6866 520.01 26.9545L518.582 28.383C518.024 28.9409 517.119 28.9409 516.561 28.383L514.714 26.5361L499.592 41.6586C498.677 42.5733 497.436 43.0872 496.143 43.0872C495.607 43.0872 495.093 43.3 494.714 43.6789L492.867 45.5259C492.309 46.0838 491.405 46.0838 490.847 45.5259L489.418 44.0973C488.861 43.5395 488.861 42.6349 489.418 42.077L491.265 40.23C491.644 39.8512 491.857 39.3373 491.857 38.8015C491.857 37.5079 492.371 36.2673 493.286 35.3526L508.408 20.23L506.561 18.383C506.003 17.8251 506.003 16.9206 506.561 16.3627L507.99 14.9342C508.258 14.6662 508.621 14.5157 509 14.5157H514.078L514.956 11.2391C515.27 10.0648 515.888 8.95478 516.806 8.03643ZM510.429 22.2503L495.306 37.3729C494.927 37.7518 494.714 38.2657 494.714 38.8015C494.714 39.4076 494.601 40.0021 494.387 40.5569C494.942 40.3429 495.537 40.23 496.143 40.23C496.679 40.23 497.193 40.0172 497.571 39.6383L512.694 24.5158L510.429 22.2503Z" fill="#03663C" fill-opacity="0.88"/>
</svg>
