<svg width="77" height="78" viewBox="0 0 77 78" fill="none" xmlns="http://www.w3.org/2000/svg">
<g clip-path="url(#clip0_21_61)">
<path d="M55.0344 25.0804C54.6755 24.6507 54.2976 24.2313 53.9006 23.8235C51.5087 21.366 48.681 19.589 45.6591 18.4959C45.5075 22.3308 44.5909 26.1391 42.9128 29.6723C43.7784 30.4279 44.6203 31.2246 45.4358 32.0625C47.164 33.838 48.7043 35.7268 50.0571 37.7041C52.4838 33.7672 54.1439 29.4872 55.0344 25.0804Z" fill="#03663C" fill-opacity="0.88"/>
<path d="M47.9991 40.7145C46.5875 38.491 44.9271 36.3786 43.0173 34.4165C42.4392 33.8226 41.8467 33.2511 41.2409 32.7021C40.0623 34.5611 38.6496 36.313 37.0033 37.9153C35.357 39.5177 33.5676 40.8826 31.6774 42.0105C32.2099 42.6309 32.7651 43.2387 33.3433 43.8326C35.253 45.7947 37.3198 47.5116 39.5043 48.9827C41.0956 47.8471 42.6212 46.5765 44.0653 45.1709C45.5095 43.7652 46.8208 42.2745 47.9991 40.7145Z" fill="#03663C" fill-opacity="0.88"/>
<path d="M42.6219 50.8744C43.9355 49.8673 45.204 48.7724 46.4194 47.5894C47.6348 46.4064 48.7636 45.168 49.8058 43.8821C51.5756 47.3579 52.7867 51.0423 53.4407 54.8031C49.699 54.0477 46.0486 52.7375 42.6219 50.8744Z" fill="#03663C" fill-opacity="0.88"/>
<path d="M36.4394 50.9587C34.4993 49.5529 32.6529 47.9621 30.9247 46.1866C30.1092 45.3487 29.3355 44.4856 28.6036 43.5999C25.0263 45.182 21.1946 45.9953 17.3571 46.0432C18.3681 49.0936 20.068 51.9682 22.4599 54.4257C22.8569 54.8336 23.2659 55.2227 23.6858 55.593C28.1151 54.8219 32.4383 53.2781 36.4394 50.9587Z" fill="#03663C" fill-opacity="0.88"/>
<path d="M57.5851 28.8797C61.3742 36.0491 60.9043 44.8588 56.2253 51.6071C55.3356 47.8982 53.9367 44.285 52.0271 40.8781C54.5422 37.14 56.3957 33.0851 57.5851 28.8797Z" fill="#03663C" fill-opacity="0.88"/>
<path d="M27.4148 58.2455C31.6508 57.1701 35.7543 55.4269 39.559 53.0137C42.913 55.0147 46.4871 56.5107 50.1707 57.5003C43.2984 61.9952 34.4792 62.227 27.4148 58.2455Z" fill="#03663C" fill-opacity="0.88"/>
<path d="M26.1899 20.7489C31.0275 17.5848 36.8298 16.5331 42.3057 17.5765C42.2763 20.9611 41.5724 24.3392 40.1968 27.4919C35.9059 24.3294 31.147 22.0806 26.1899 20.7489Z" fill="#03663C" fill-opacity="0.88"/>
<path d="M22.9199 23.4461C28.5027 24.5731 33.8821 26.9353 38.6187 30.5265C37.5341 32.3047 36.2107 33.977 34.6493 35.4968C33.0878 37.0166 31.3804 38.2943 29.5735 39.3304C26.1116 34.4986 23.8957 29.0573 22.9199 23.4461Z" fill="#03663C" fill-opacity="0.88"/>
<path d="M20.1353 26.642C21.3326 31.6332 23.452 36.4512 26.4974 40.826C23.3087 42.1159 19.9128 42.7283 16.5286 42.6662C15.6336 37.1641 16.8416 31.3923 20.1353 26.642Z" fill="#03663C" fill-opacity="0.88"/>
</g>
<defs>
<clipPath id="clip0_21_61">
<rect width="54" height="54" fill="white" transform="translate(0 38.6086) rotate(-44.2257)"/>
</clipPath>
</defs>
</svg>
