<svg width="106" height="106" viewBox="0 0 106 106" fill="none" xmlns="http://www.w3.org/2000/svg">
<g clip-path="url(#clip0_87_267)">
<path d="M28.2546 29.1666C25.0163 31.3502 24.147 35.8191 26.3306 39.0574L42.0153 62.318L39.8101 61.8356L39.0274 61.7368C35.2282 60.9978 31.5206 63.4978 30.7816 67.297C30.0425 71.0962 32.5425 74.8038 36.3418 75.5428L36.3832 75.6043L63.2526 80.6708L63.4172 80.6493L63.5617 80.7309C67.5588 80.9337 71.8406 79.9823 75.6481 77.4148L79.0326 75.1327C87.963 69.1109 90.3054 57.0692 84.2836 48.1388L73.9102 32.7548C71.7265 29.5165 67.2576 28.6472 64.0193 30.8308C63.1809 31.3961 62.5596 32.1508 62.0544 32.9614C59.681 30.8356 56.0485 30.4765 53.3025 32.3282C51.7948 33.3448 50.8096 34.8707 50.4015 36.5222C48.7174 36.2815 46.9335 36.6228 45.4258 37.6394C44.7336 38.1062 44.1783 38.6932 43.7057 39.3364L38.1455 31.0906C35.9619 27.8523 31.4929 26.9829 28.2546 29.1666ZM30.9102 33.1049C32.0025 32.3683 33.4707 32.6539 34.2072 33.7462L48.813 55.4069L52.7513 52.7513L47.4401 44.8747C46.7036 43.7824 46.9892 42.3142 48.0815 41.5777C49.1737 40.8412 50.6419 41.1268 51.3784 42.219L56.6896 50.0957L60.6279 47.44L55.3167 39.5634C54.5802 38.4712 54.8658 37.003 55.9581 36.2665C57.0503 35.53 58.5185 35.8156 59.255 36.9078L64.5662 44.7844L68.6892 42.0043L66.0335 38.066C65.297 36.9738 65.5826 35.5056 66.6749 34.7691C67.7672 34.0326 69.2353 34.3182 69.9718 35.4104L80.3453 50.7944C84.946 57.6172 83.1998 66.5937 76.377 71.1944L72.9925 73.4765C70.108 75.4215 66.9208 76.0713 63.8039 75.9128L37.2436 70.9065C35.7755 70.6209 35.1323 69.6671 35.4179 68.1989C35.7035 66.7307 36.6573 66.0876 38.1255 66.3732L52.3436 69.139L30.2689 36.4018C29.5324 35.3095 29.818 33.8414 30.9102 33.1049Z" fill="black"/>
</g>
<defs>
<clipPath id="clip0_87_267">
<rect width="76" height="76" fill="white" transform="translate(0 42.4897) rotate(-33.9919)"/>
</clipPath>
</defs>
</svg>
