<svg width="163" height="163" viewBox="0 0 163 163" fill="none" xmlns="http://www.w3.org/2000/svg">
<g clip-path="url(#clip0_21_62)">
<mask id="mask0_21_62" style="mask-type:luminance" maskUnits="userSpaceOnUse" x="114" y="51" width="28" height="28">
<path d="M114.866 59.385L131.771 51.184L141.031 70.2708L124.126 78.4719L114.866 59.385Z" fill="white"/>
</mask>
<g mask="url(#mask0_21_62)">
<path d="M123.329 55.2813C123.072 55.406 122.848 55.5802 122.688 55.8126L117.654 63.2477C117.328 63.7281 117.292 64.3545 117.546 64.8787L121.46 72.9475C121.714 73.4714 122.228 73.8302 122.808 73.8722L125.146 74.0391C126.246 74.0464 126.57 73.8806 126.974 73.6845C128.288 73.0471 128.651 71.8856 127.978 70.4988L124.116 62.5379C124.061 62.4255 123.925 62.3922 123.815 62.4458L122.938 62.8708C122.826 62.9254 122.77 63.0543 122.824 63.1647L126.688 71.1293C126.986 71.7437 126.646 72.6724 125.356 72.6566L122.916 72.4634C122.831 72.4596 122.747 72.4178 122.711 72.343L118.796 64.2742C118.759 64.1977 118.773 64.0948 118.821 64.0233L123.848 56.6099C123.895 56.5406 123.973 56.5028 124.056 56.509L132.99 57.1496C133.076 57.1572 133.165 57.2063 133.203 57.2851L137.117 65.3539C137.155 65.431 137.154 65.5285 137.107 65.5975L132.066 73.0181C132.021 73.084 131.938 73.1241 131.858 73.119L129.542 72.9211C129.473 72.9159 129.401 72.9535 129.363 73.0075C129.004 73.5293 128.926 73.6073 128.54 73.9945C128.444 74.09 128.3 74.2367 128.744 74.2631L131.761 74.5082C132.047 74.5291 132.327 74.4722 132.583 74.3482C132.842 74.2224 133.057 74.0418 133.217 73.8021L138.258 66.3813C138.583 65.8981 138.62 65.2743 138.366 64.7504L134.452 56.6816C134.198 56.1574 133.684 55.7992 133.104 55.7568L124.148 55.1088C123.868 55.0899 123.591 55.159 123.334 55.2838L123.329 55.2813ZM127.998 60.1389C126.006 61.1053 125.231 62.529 125.915 63.9394C126.657 65.4675 128.039 65.3187 130.042 64.5802C132.438 63.6949 132.78 63.9444 132.998 64.3946C133.377 65.1761 132.916 65.8109 131.445 66.525C129.596 67.4218 128.966 67.1573 128.382 66.3013C128.318 66.2104 128.204 66.1679 128.103 66.2168L127.195 66.6574C127.168 66.6713 127.144 66.6897 127.124 66.7128C127.104 66.7354 127.089 66.7614 127.079 66.7902C127.069 66.8192 127.065 66.8487 127.067 66.8788C127.068 66.9094 127.075 66.9384 127.088 66.9662C127.659 68.1438 128.975 69.2262 132.033 67.7428C134.246 66.669 135.102 65.1821 134.363 63.6571C133.631 62.1494 132.402 62.2422 130.117 62.9996C127.81 63.7619 127.534 63.7249 127.287 63.2161C127.083 62.7964 126.986 62.1501 128.593 61.3705C130.028 60.6743 130.709 60.7269 131.396 61.5894C131.46 61.6709 131.576 61.7064 131.669 61.6608L132.578 61.2202C132.633 61.1932 132.671 61.1329 132.69 61.0738C132.707 61.0128 132.711 60.9516 132.678 60.8964C131.728 59.2969 130.236 59.0519 127.998 60.1378L127.998 60.1389Z" fill="#83CD29"/>
</g>
<mask id="mask1_21_62" style="mask-type:luminance" maskUnits="userSpaceOnUse" x="21" y="51" width="98" height="71">
<path d="M21.1045 91.7333L104.242 51.4007L118.732 81.2694L35.5948 121.602L21.1045 91.7333Z" fill="white"/>
</mask>
<g mask="url(#mask1_21_62)">
<path d="M77.0723 64.6553C76.9931 64.6941 76.9283 64.7498 76.8784 64.8229C76.8544 64.8591 76.8352 64.8976 76.821 64.9386C76.8069 64.9799 76.7985 65.022 76.7953 65.0654C76.7921 65.1087 76.7946 65.1518 76.8028 65.1946C76.811 65.237 76.8244 65.2783 76.8433 65.3173L82.3579 76.6846C82.4121 76.7961 82.4084 76.9213 82.3389 77.0243C82.3045 77.0758 82.2591 77.115 82.2034 77.142C82.1476 77.1691 82.089 77.1803 82.027 77.1756L79.6515 77.0065C79.565 77 79.4789 77.0052 79.3933 77.0214C79.3081 77.0378 79.2263 77.0648 79.148 77.1028C79.0698 77.1408 78.9979 77.1883 78.932 77.2452C78.8665 77.3023 78.8092 77.3667 78.7605 77.4388L73.4263 85.3132C73.2266 85.6073 73.2072 85.997 73.3624 86.3169L77.5145 94.8757C77.5522 94.9541 77.5999 95.0263 77.6568 95.0922C77.7136 95.1578 77.7781 95.2154 77.85 95.2642C77.9221 95.3129 77.9993 95.3517 78.0813 95.3802C78.1637 95.4087 78.2481 95.4261 78.335 95.4321L87.8222 96.1162C87.9088 96.123 87.9949 96.1178 88.0805 96.1016C88.1657 96.0852 88.2476 96.0582 88.3258 96.0202C88.4041 95.9822 88.4759 95.9347 88.5418 95.8778C88.6073 95.8207 88.6647 95.7563 88.7132 95.6839L94.0482 87.8091C94.0971 87.7373 94.1356 87.6602 94.1642 87.5778C94.1929 87.4957 94.2102 87.411 94.2163 87.3244C94.2227 87.2376 94.2174 87.1512 94.201 87.066C94.1845 86.9805 94.157 86.8986 94.1191 86.8203L83.7674 65.4825C83.6099 65.1578 83.2848 64.9393 82.9249 64.9184L77.3166 64.5906C77.2285 64.5859 77.1486 64.6162 77.0721 64.654L77.0723 64.6553ZM34.5809 98.4675C34.4424 98.5421 34.3216 98.6309 34.2305 98.7662L28.8957 106.641C28.8466 106.713 28.808 106.79 28.7793 106.872C28.7508 106.954 28.7333 107.039 28.7272 107.125C28.7209 107.212 28.7261 107.299 28.7429 107.384C28.7595 107.469 28.7869 107.551 28.8252 107.629L34.4127 119.109C34.4903 119.269 34.6448 119.377 34.8229 119.387C35.0006 119.402 35.1714 119.32 35.2682 119.171L38.4388 114.512C38.6375 114.211 38.6792 113.835 38.5245 113.516L35.9219 108.151C35.7666 107.831 35.7925 107.456 35.993 107.162L37.3383 105.17C37.4371 105.023 37.5661 104.911 37.7259 104.835C37.8847 104.757 38.0526 104.724 38.2292 104.738L40.6256 104.914C40.9802 104.939 41.2909 105.151 41.4459 105.47L44.0483 110.835C44.2032 111.154 44.5297 111.354 44.8832 111.384L50.5048 111.777C50.6832 111.793 50.8536 111.71 50.9505 111.561C51.0484 111.417 51.0633 111.226 50.986 111.067L45.4284 99.5736C45.3909 99.4948 45.3437 99.4228 45.2869 99.3565C45.2299 99.2906 45.1658 99.2331 45.0936 99.1841C45.0214 99.1355 44.9443 99.0966 44.862 99.0683C44.7797 99.0401 44.695 99.0228 44.6082 99.0171L35.122 98.3343C34.9612 98.3217 34.8157 98.3616 34.6705 98.4247L34.5817 98.4678L34.5809 98.4675ZM101.226 66.2643C101.067 66.3413 100.937 66.4529 100.838 66.5994L95.5034 74.4745C95.3044 74.7686 95.277 75.1433 95.4322 75.4632L99.5843 84.022C99.7405 84.3438 100.063 84.5473 100.419 84.5709L109.805 85.1967C110.151 85.2203 110.489 85.0711 110.688 84.7862L113.94 80.1432C114.043 79.9961 114.067 79.8032 113.99 79.6419C113.912 79.4806 113.758 79.3761 113.579 79.3639L104.047 78.7013C103.869 78.6893 103.693 78.5754 103.615 78.4152L102.317 75.7388C102.239 75.5788 102.267 75.3842 102.367 75.2375L104.035 72.7759C104.134 72.6294 104.304 72.5473 104.481 72.5596L107.452 72.7706C107.495 72.7735 107.537 72.7822 107.579 72.7963C107.62 72.8105 107.658 72.83 107.694 72.8544C107.731 72.8787 107.763 72.9074 107.791 72.9404C107.819 72.9734 107.843 73.0094 107.862 73.0486L108.886 75.1584C108.905 75.1979 108.928 75.2338 108.957 75.2668C108.985 75.2997 109.017 75.3284 109.053 75.3528C109.089 75.3775 109.128 75.3967 109.169 75.4109C109.21 75.425 109.252 75.4337 109.296 75.4369C109.473 75.4495 109.642 75.3684 109.742 75.2206L112.928 70.4809C113.125 70.1868 113.153 69.8108 112.998 69.4921L111.996 67.4269C111.958 67.3487 111.911 67.2767 111.854 67.2108C111.797 67.1449 111.733 67.0877 111.661 67.0389C111.589 66.9899 111.512 66.9514 111.429 66.9226C111.347 66.8942 111.263 66.8769 111.176 66.8705L101.733 66.1648C101.557 66.1517 101.389 66.1842 101.23 66.2621L101.226 66.2643ZM82.1671 83.4042C82.209 83.3835 82.2534 83.3742 82.3004 83.3761L85.5535 83.615C85.6417 83.6215 85.7275 83.6709 85.7662 83.7505L87.1934 86.6925C87.2322 86.7724 87.2184 86.8701 87.1682 86.9434L85.3423 89.6464C85.2922 89.7192 85.2077 89.7602 85.1192 89.7546L81.866 89.5156C81.7776 89.5094 81.692 89.4598 81.6533 89.3801L80.2265 86.4391C80.1878 86.3591 80.2025 86.262 80.2518 86.1881L82.0777 83.4852C82.1027 83.4484 82.1289 83.4241 82.1676 83.4053L82.1671 83.4042Z" fill="#404137"/>
</g>
<path d="M56.8737 87.7268C56.7142 87.8039 56.5848 87.9155 56.4855 88.0621L51.1433 95.9221C50.944 96.2164 50.9249 96.606 51.0799 96.9256L55.2321 105.484C55.2697 105.563 55.3171 105.635 55.374 105.701C55.431 105.767 55.4954 105.824 55.5672 105.873C55.6395 105.922 55.7165 105.961 55.7985 105.989C55.8809 106.018 55.9655 106.035 56.0521 106.041L65.5394 106.725C65.6262 106.731 65.7121 106.727 65.7976 106.71C65.883 106.694 65.9651 106.667 66.0433 106.629C66.1213 106.591 66.1935 106.543 66.2589 106.486C66.3248 106.429 66.3818 106.365 66.4304 106.293L71.7653 98.4176C71.8142 98.3458 71.853 98.2686 71.8814 98.1866C71.91 98.1042 71.9274 98.0198 71.9334 97.9329C71.9398 97.8461 71.9346 97.76 71.9181 97.6745C71.9016 97.589 71.8743 97.5074 71.8363 97.4291L67.6843 88.8706C67.5291 88.5507 67.2113 88.3246 66.8564 88.2995L57.3763 87.6303C57.1998 87.6171 57.0321 87.6497 56.873 87.7275L56.8737 87.7268ZM104.897 73.8644C104.867 73.8788 104.835 73.8946 104.815 73.9221L103.793 75.4463C103.773 75.4741 103.762 75.5053 103.759 75.5398C103.756 75.574 103.761 75.6068 103.776 75.6378L104.569 77.2724C104.598 77.3341 104.662 77.3728 104.73 77.378L106.552 77.5035C106.585 77.5068 106.616 77.5013 106.645 77.487C106.674 77.4728 106.698 77.4519 106.715 77.4244L107.745 75.9154C107.782 75.8594 107.791 75.7851 107.761 75.7234L106.968 74.0888C106.939 74.0273 106.875 73.9888 106.807 73.9835L104.978 73.8427C104.944 73.8399 104.926 73.8499 104.896 73.8643L104.897 73.8644Z" fill="#83CD29"/>
</g>
<defs>
<clipPath id="clip0_21_62">
<rect width="121.456" height="121.456" fill="white" transform="translate(0 53.0133) rotate(-25.8795)"/>
</clipPath>
</defs>
</svg>
