<svg width="147" height="148" viewBox="0 0 147 148" fill="none" xmlns="http://www.w3.org/2000/svg">
<g clip-path="url(#clip0_21_74)">
<mask id="mask0_21_74" style="mask-type:luminance" maskUnits="userSpaceOnUse" x="5" y="8" width="137" height="132">
<path d="M5.82901 40.2026L112.115 8.60287L141.71 108.147L35.4243 139.746L5.82901 40.2026Z" fill="white"/>
</mask>
<g mask="url(#mask0_21_74)">
<path d="M54.0929 69.4836C57.1763 56.5499 61.8963 44.9779 67.1742 36.6618C73.5337 26.643 80.8275 21.2911 85.9849 22.521C91.3589 23.8032 95.7136 32.3599 96.8025 45.0086C97.6274 54.5704 96.378 66.5975 93.451 78.8758C90.4501 91.4638 86.1703 103.041 80.9716 111.27C74.3939 121.684 66.637 127.051 61.3665 125.793C56.2516 124.574 52.128 116.816 50.9419 105.159C49.9399 95.3099 50.9794 82.5464 54.0908 69.4865L54.0929 69.4836Z" stroke="#03663C" stroke-opacity="0.88" stroke-width="7.47646"/>
<path d="M59.8784 88.8873C50.2163 79.7564 42.5496 69.8846 37.9801 61.1573C32.4768 50.6419 31.4831 41.6467 35.1237 37.7921C38.9177 33.7759 48.5035 34.2763 60.0026 39.6509C68.6971 43.7144 78.4917 50.8031 87.6648 59.472C97.0701 68.3603 104.961 77.8521 109.494 86.4666C115.23 97.3684 116.006 106.77 112.284 110.71C108.673 114.533 99.8956 114.232 89.2059 109.437C80.1741 105.385 69.6364 98.1082 59.8772 88.8854L59.8784 88.8873Z" stroke="#03663C" stroke-opacity="0.88" stroke-width="7.47646"/>
</g>
<path d="M82.9093 71.3692C82.9553 71.5239 82.9975 71.6801 83.0358 71.8368C83.0741 71.9938 83.1088 72.1516 83.1393 72.3103C83.1701 72.4689 83.1967 72.6285 83.2194 72.7882C83.2423 72.9482 83.2611 73.1088 83.2758 73.2696C83.2907 73.4307 83.3016 73.5917 83.3085 73.7533C83.3154 73.9148 83.3185 74.0763 83.3174 74.238C83.3163 74.3996 83.3113 74.5609 83.3024 74.7224C83.2933 74.8839 83.2805 75.0449 83.2637 75.2055C83.2466 75.3665 83.2259 75.5267 83.2011 75.6864C83.1763 75.8462 83.1475 76.0053 83.1149 76.1635C83.0824 76.3221 83.046 76.4795 83.0055 76.636C82.9651 76.7927 82.9211 76.9483 82.8728 77.1025C82.825 77.257 82.7732 77.4101 82.7175 77.5621C82.6622 77.714 82.6029 77.8645 82.5399 78.0135C82.4769 78.1625 82.4103 78.3101 82.3403 78.4558C82.2699 78.6016 82.1964 78.7454 82.1189 78.8876C82.0417 79.0299 81.9611 79.1701 81.8769 79.3082C81.7927 79.4465 81.7051 79.5827 81.6145 79.7166C81.5236 79.8506 81.4294 79.982 81.332 80.1115C81.2347 80.241 81.1343 80.3678 81.0306 80.4921C80.9273 80.6167 80.8205 80.7384 80.7109 80.8578C80.6015 80.977 80.489 81.0934 80.3738 81.2071C80.2586 81.321 80.1406 81.4317 80.0198 81.5396C79.8991 81.6479 79.7758 81.7527 79.65 81.8545C79.5239 81.9567 79.3956 82.0553 79.2651 82.1511C79.1342 82.2467 79.0011 82.3391 78.8661 82.4282C78.7307 82.5175 78.5933 82.6031 78.4538 82.6856C78.3142 82.7681 78.1728 82.8469 78.0296 82.9225C77.886 82.9982 77.7411 83.0701 77.5941 83.1384C77.4474 83.2067 77.2987 83.2717 77.1486 83.3327C76.9988 83.3939 76.8473 83.4514 76.6942 83.5049C76.5413 83.5587 76.3872 83.6087 76.232 83.6548C76.0765 83.701 75.9202 83.7434 75.763 83.7818C75.6056 83.8206 75.4472 83.8552 75.2881 83.8858C75.129 83.9168 74.9693 83.9435 74.8088 83.9665C74.6486 83.9895 74.4876 84.0086 74.3263 84.0235C74.1651 84.0385 74.0033 84.0498 73.8416 84.0568C73.6797 84.064 73.5178 84.0673 73.3557 84.0665C73.1936 84.0657 73.0319 84.061 72.8701 84.0524C72.7082 84.0436 72.5467 84.031 72.3857 84.0143C72.2247 83.9978 72.0641 83.9773 71.9039 83.9526C71.7438 83.9281 71.5844 83.9 71.4257 83.8674C71.2671 83.8352 71.1093 83.7992 70.9522 83.7591C70.7955 83.7189 70.6396 83.6753 70.4847 83.6275C70.3302 83.58 70.1765 83.5287 70.0245 83.4733C69.8723 83.418 69.7216 83.3594 69.5722 83.2969C69.4229 83.2343 69.2754 83.1681 69.1294 83.0981C68.9834 83.0285 68.8392 82.9551 68.6966 82.8781C68.5542 82.8013 68.4138 82.7211 68.2755 82.6374C68.137 82.5537 68.0009 82.4664 67.8667 82.376C67.7325 82.2855 67.6006 82.1919 67.471 82.095C67.3416 81.998 67.2146 81.8981 67.0899 81.795C66.9655 81.692 66.8433 81.5859 66.7241 81.4766C66.6047 81.3677 66.4882 81.2557 66.3744 81.1406C66.2603 81.026 66.1496 80.9084 66.0416 80.7881C65.9335 80.6678 65.8283 80.5451 65.7264 80.4195C65.6246 80.2942 65.5256 80.1664 65.43 80.036C65.3341 79.9057 65.2417 79.7734 65.1528 79.6385C65.0636 79.5036 64.9776 79.3668 64.8955 79.2277C64.813 79.0886 64.7339 78.9478 64.6586 78.8047C64.5831 78.6619 64.5111 78.5172 64.4428 78.3706C64.3746 78.2244 64.3097 78.0763 64.2488 77.9266C64.1877 77.777 64.1302 77.626 64.0766 77.4735C64.0233 77.3213 63.9733 77.1674 63.9273 77.0127C63.8812 76.8576 63.8391 76.7018 63.8004 76.5448C63.7621 76.3878 63.7278 76.2302 63.6973 76.0715C63.6665 75.9129 63.64 75.7534 63.6171 75.5933C63.5944 75.4336 63.5755 75.273 63.5608 75.1122C63.5457 74.9512 63.535 74.7901 63.5281 74.6285C63.5209 74.4671 63.5181 74.3056 63.5192 74.1439C63.52 73.9823 63.5249 73.8207 63.5342 73.6595C63.543 73.498 63.5561 73.3369 63.5729 73.176C63.5897 73.0154 63.6107 72.8551 63.6355 72.6954C63.6603 72.5356 63.6888 72.3766 63.7216 72.218C63.7542 72.0598 63.7906 71.9023 63.831 71.7456C63.8712 71.5892 63.9155 71.4336 63.9634 71.2791C64.0116 71.1248 64.0633 70.9715 64.1187 70.8196C64.1744 70.6679 64.2338 70.5174 64.2967 70.3683C64.3597 70.2193 64.426 70.0718 64.4963 69.9261C64.5664 69.7804 64.6402 69.6364 64.7173 69.4941C64.7949 69.3519 64.8755 69.2117 64.9598 69.0736C65.0439 68.9353 65.1312 68.7992 65.2221 68.6652C65.313 68.5313 65.4071 68.3995 65.5046 68.2703C65.6016 68.141 65.7023 68.014 65.8056 67.8895C65.9093 67.7651 66.016 67.6431 66.1254 67.5242C66.2351 67.4048 66.3476 67.2884 66.4628 67.1745C66.578 67.0608 66.6959 66.9498 66.8167 66.8419C66.9375 66.7339 67.0608 66.6291 67.1866 66.527C67.3124 66.4253 67.4407 66.3266 67.5715 66.2307C67.7024 66.1351 67.8352 66.0428 67.9706 65.9536C68.1059 65.8644 68.2433 65.7787 68.3829 65.6962C68.5221 65.6138 68.6637 65.5346 68.807 65.4593C68.9503 65.3837 69.0955 65.3117 69.2423 65.2435C69.3893 65.1751 69.5376 65.1102 69.6877 65.0489C69.8378 64.988 69.9893 64.9304 70.1423 64.8766C70.2949 64.8229 70.4491 64.7732 70.6046 64.727C70.7598 64.6809 70.9161 64.6382 71.0736 64.5997C71.231 64.5613 71.3894 64.5267 71.5482 64.4958C71.7073 64.4651 71.8673 64.4384 72.0275 64.4154C72.188 64.3923 72.3487 64.3734 72.5103 64.3583C72.6715 64.343 72.833 64.3322 72.995 64.325C73.1569 64.3178 73.3188 64.3145 73.4809 64.3153C73.6427 64.3162 73.8047 64.3209 73.9665 64.3294C74.1282 64.3383 74.2896 64.3509 74.4509 64.3673C74.6119 64.3841 74.7725 64.4045 74.9326 64.429C75.0928 64.4534 75.2522 64.4819 75.4108 64.5141C75.5694 64.5464 75.7273 64.5827 75.8841 64.6228C76.0411 64.6626 76.197 64.7065 76.3515 64.7541C76.5064 64.8018 76.6598 64.8533 76.8121 64.9085C76.9643 64.9635 77.1151 65.0224 77.2644 65.0849C77.4134 65.1476 77.5612 65.2138 77.7072 65.2834C77.8532 65.3533 77.9974 65.4267 78.1397 65.5035C78.2824 65.5805 78.4225 65.6608 78.5611 65.7445C78.6993 65.8282 78.8358 65.9154 78.9699 66.0059C79.1041 66.0963 79.236 66.1899 79.3652 66.2866C79.4949 66.3835 79.622 66.4837 79.7464 66.5867C79.8711 66.6898 79.993 66.7961 80.1125 66.9052C80.2319 67.0141 80.3484 67.1262 80.4621 67.2409C80.576 67.3559 80.687 67.4734 80.795 67.5937C80.9031 67.714 81.008 67.8368 81.1101 67.962C81.212 68.0877 81.3107 68.2155 81.4066 68.3458C81.5022 68.4759 81.5946 68.6085 81.6838 68.7434C81.773 68.8782 81.8587 69.0151 81.9411 69.1542C82.0236 69.2933 82.1024 69.4341 82.178 69.5771C82.2535 69.7199 82.3255 69.8647 82.3937 70.0109C82.462 70.1574 82.5269 70.3055 82.5878 70.4552C82.649 70.6048 82.706 70.7556 82.7597 70.9081C82.8134 71.0605 82.8632 71.2141 82.9093 71.3692Z" fill="#03663C" fill-opacity="0.88"/>
<mask id="mask1_21_74" style="mask-type:luminance" maskUnits="userSpaceOnUse" x="6" y="13" width="134" height="123">
<path d="M6.93246 45.1134L113.218 13.5136L139.974 103.508L33.6885 135.107L6.93246 45.1134Z" fill="white"/>
</mask>
<g mask="url(#mask1_21_74)">
<path d="M67.6974 54.9476C80.4404 51.159 92.8206 49.4627 102.657 49.8731C114.51 50.3676 122.785 53.9976 124.292 59.0648C125.862 64.3449 120.622 72.3732 110.207 79.6223C102.334 85.1027 91.2921 90.0243 79.1953 93.6208C66.7933 97.308 54.6292 99.3863 44.9051 99.003C32.6025 98.5166 24.0837 94.4952 22.5437 89.3154C21.0494 84.2894 25.7118 76.8596 35.2189 70.0209C43.2519 64.2429 54.828 58.7738 67.6965 54.9479L67.6974 54.9476Z" stroke="#03663C" stroke-opacity="0.88" stroke-width="7.47646"/>
</g>
</g>
<defs>
<clipPath id="clip0_21_74">
<rect width="118.213" height="117.85" fill="white" transform="translate(0 34.6328) rotate(-16.5577)"/>
</clipPath>
</defs>
</svg>
